<svg id="Layer_2" enable-background="new 0 0 64 64" height="512" viewBox="0 0 64 64" width="512" xmlns="http://www.w3.org/2000/svg"><path d="m45.225 37h-1.342c-1.722 0-3.25 1.102-3.795 2.735l-1.342 4.025c-.491 1.473-1.318 2.811-2.416 3.909l-4.869 4.869c-1.523 1.522-3.744 2.112-5.821 1.546l-.484-.132-.156 1.048h13.879l3.856-4.518c.835-.979 1.474-2.109 1.881-3.33l2.506-7.52c.432-1.295-.532-2.632-1.897-2.632z" fill="#fcb98b"/><path d="m59 37h-54l-2-4h58z" fill="#6e83b7"/><path d="m2 31h60v2h-60z" fill="#6e83b7"/><path d="m60.5 34 .5-1h-58l.5 1z" fill="#466089"/><path d="m35.249 61.596 9.486-11.115c.835-.979 1.474-2.109 1.881-3.33l2.506-7.52c.432-1.294-.532-2.631-1.897-2.631h-1.342c-1.722 0-3.25 1.102-3.795 2.735l-1.342 4.025c-.491 1.473-1.318 2.811-2.416 3.909l-4.869 4.869c-1.523 1.522-3.744 2.112-5.821 1.546l-4.039-1.101c-2.028-.553-3.282-2.582-2.87-4.643l1.438-7.188c.43-2.148-1.212-4.152-3.402-4.152-1.619 0-3.023 1.119-3.383 2.697l-2.384 10.428-2 5.875-4 6h27.87c.127-.134.259-.263.379-.404z" fill="#ffd3b3"/><path d="m47.5 27c0 2.209 1.791 4 4 4s4-1.791 4-4v-4h-8z" fill="#d3d3d3"/><path d="m12.5 31c-2.209 0-4-1.791-4-4v-25h39v25c0 2.209 1.791 4 4 4z" fill="#edeff1"/><g fill="#6e83b7"><path d="m34 18h-7v-12h2v10h5z"/><path d="m19 9c0-1.654-1.346-3-3-3h-5v12h5c1.654 0 3-1.346 3-3v-1c0-.771-.301-1.468-.78-2 .48-.532.78-1.229.78-2zm-6-1h3c.551 0 1 .449 1 1v1c0 .551-.449 1-1 1h-3zm4 7c0 .551-.449 1-1 1h-3v-3h3c.551 0 1 .449 1 1z"/><path d="m22 6h2v12h-2z"/><path d="m44 18h-7v-12h2v10h5z"/></g><path d="m11 21h33v2h-33z" fill="#d3d3d3"/><path d="m11 27h33v2h-33z" fill="#d3d3d3"/></svg>