<?xml version="1.0"?>
<svg xmlns="http://www.w3.org/2000/svg" id="Outline" viewBox="0 0 512 512" width="512" height="512"><circle cx="184" cy="136" r="8"/><circle cx="104" cy="136" r="8"/><path d="M136,160h16a8,8,0,0,0,0-16h-8v-8a8,8,0,0,0-16,0v16A8,8,0,0,0,136,160Z"/><path d="M432,184a8,8,0,0,0,8-8V72a8,8,0,0,0-8-8H320a8,8,0,0,0-8,8V176a8,8,0,0,0,8,8ZM328,80h96v88H328Z"/><path d="M456,272H416V248.525a24.028,24.028,0,0,0-24-24H360a24.028,24.028,0,0,0-24,24V272H296a39.962,39.962,0,0,0-31.978,16H248V248a40.045,40.045,0,0,0-40-40H191.989q3.169-2.38,6.126-5.083a79.776,79.776,0,0,0,24.266-42.961c.538.027,1.077.044,1.619.044a31.989,31.989,0,0,0,16-59.695V80h8a8,8,0,0,0,8-8V24a8,8,0,0,0-8-8H40a8,8,0,0,0-8,8V72a8,8,0,0,0,8,8h8v20.305A31.989,31.989,0,0,0,64,160c.543,0,1.084-.017,1.623-.044a80.042,80.042,0,0,0,21.81,40.611A81.19,81.19,0,0,0,96,208H80a40.045,40.045,0,0,0-40,40v40H24a8,8,0,0,0-8,8V488a8,8,0,0,0,8,8H488a8,8,0,0,0,8-8V424a8,8,0,0,0-8-8h-.022A39.788,39.788,0,0,0,496,392V312A40.045,40.045,0,0,0,456,272ZM224,144V112a16,16,0,0,1,0,32ZM48,32H240V64H48ZM64,144a16,16,0,0,1,0-32Zm0-48V80H224V96Zm16.266,53.779c-.177-1.9-.266-3.841-.266-5.779V112H208v32c0,1.938-.089,3.884-.268,5.806a64,64,0,0,1-127.466-.027ZM56,248a24.028,24.028,0,0,1,24-24h56v24a8,8,0,0,0,16,0V224h56a24.028,24.028,0,0,1,24,24v40H56ZM264,416a8,8,0,0,0-8,8v56H32V304H256.805a40.028,40.028,0,0,0-.805,8v80a39.788,39.788,0,0,0,8.022,24Zm88-167.475a8.009,8.009,0,0,1,8-8h32a8.009,8.009,0,0,1,8,8V272H352ZM312,288H440V416H312Zm-40,24a24.027,24.027,0,0,1,24-24V416a24.027,24.027,0,0,1-24-24ZM480,480H272V432H480Zm0-88a24.027,24.027,0,0,1-24,24V288a24.027,24.027,0,0,1,24,24Z"/><path d="M392,448H360a8,8,0,0,0,0,16h32a8,8,0,0,0,0-16Z"/><path d="M112,160a7.987,7.987,0,0,0-7.149,11.575l-.006,0c.016.033.053.1.1.191.015.026.029.054.044.081C106.323,174.326,116.81,192,144,192s37.677-17.674,39.012-20.15c.015-.027.029-.055.044-.081.046-.088.083-.158.1-.191l-.006,0a7.993,7.993,0,1,0-14.3-7.15l-.006,0,.053-.1C168.641,164.8,162.388,176,144,176s-24.641-11.205-24.9-11.683l.053.1-.006,0A7.992,7.992,0,0,0,112,160Z"/><path d="M395.562,121.344,384,129.052V104a8,8,0,0,0-16,0v25.052l-11.562-7.708a8,8,0,1,0-8.876,13.312l24,16a8,8,0,0,0,8.876,0l24-16a8,8,0,0,0-8.876-13.312Z"/></svg>
